# xmcd CD database file
#
# Track frame offsets:
#	150
#	13172
#	24202
#	34575
#	46005
#	57327
#	68957
#	82280
#	93750
#	105795
#	114657
#	123470
#	135822
#	148900
#	162922
#	173372
#	183900
#	199785
#	209857
#	222045
#	233990
#
# Disc length: 3249 seconds
#
# Revision: 4
# Processed by: cddbd v1.5.2PL0 Copyright (c) Steve Scherf et al.
# Submitted via: CDex 1.51
#
DISCID=1b0caf15
DTITLE=Arthur Alexander - The Greatest
DYEAR=2006
DGENRE=Soul
TTITLE0=Anna
TTITLE1=You're The Reason
TTITLE2=Soldier Of Love
TTITLE3=I Hang My Head And Cry
TTITLE4=You Don't Care
TTITLE5=Dream Girl
TTITLE6=Call Me Lonesome
TTITLE7=After You
TTITLE8=Where Have You Been
TTITLE9=A Shot Of Rhythm And Blues
TTITLE10=Don't You Know It
TTITLE11=You Better Move On
TTITLE12=All I Need Is You
TTITLE13=Detroit City
TTITLE14=Keep Her Guessing
TTITLE15=Go Home Girl
TTITLE16=In The Middle Of It All
TTITLE17=Whole Lot Of Trouble
TTITLE18=Without A Song
TTITLE19=I Wonder Where You Are Tonight
TTITLE20=Black Night
EXTD=YEAR: 2006
EXTT0=
EXTT1=
EXTT2=
EXTT3=
EXTT4=
EXTT5=
EXTT6=
EXTT7=
EXTT8=
EXTT9=
EXTT10=
EXTT11=
EXTT12=
EXTT13=
EXTT14=
EXTT15=
EXTT16=
EXTT17=
EXTT18=
EXTT19=
EXTT20=
PLAYORDER=
